<?xml version="1.0" encoding="UTF-8" standalone="no"?>
<!-- Created with Inkscape (http://www.inkscape.org/) -->

<svg
   xmlns:dc="http://purl.org/dc/elements/1.1/"
   xmlns:cc="http://creativecommons.org/ns#"
   xmlns:rdf="http://www.w3.org/1999/02/22-rdf-syntax-ns#"
   xmlns:svg="http://www.w3.org/2000/svg"
   xmlns="http://www.w3.org/2000/svg"
   xmlns:sodipodi="http://sodipodi.sourceforge.net/DTD/sodipodi-0.dtd"
   xmlns:inkscape="http://www.inkscape.org/namespaces/inkscape"
   width="200"
   height="80"
   viewBox="0 0 52.916665 21.166667"
   version="1.1"
   id="svg177"
   inkscape:version="0.92.1 r15371"
   sodipodi:docname="logo-gms.svg">
  <defs
     id="defs171">
    <clipPath
       id="clipPath199"
       clipPathUnits="userSpaceOnUse">
      <path
         inkscape:connector-curvature="0"
         id="path197"
         d="M 0,800 H 800 V 0 H 0 Z" />
    </clipPath>
  </defs>
  <sodipodi:namedview
     id="base"
     pagecolor="#ffffff"
     bordercolor="#666666"
     borderopacity="1.0"
     inkscape:pageopacity="0.0"
     inkscape:pageshadow="2"
     inkscape:zoom="2.206127"
     inkscape:cx="112.56665"
     inkscape:cy="50.227524"
     inkscape:document-units="mm"
     inkscape:current-layer="layer1"
     showgrid="false"
     showguides="true"
     inkscape:guide-bbox="true"
     inkscape:window-width="1366"
     inkscape:window-height="705"
     inkscape:window-x="-8"
     inkscape:window-y="-8"
     inkscape:window-maximized="1"
     units="px" />
  <metadata
     id="metadata174">
    <rdf:RDF>
      <cc:Work
         rdf:about="">
        <dc:format>image/svg+xml</dc:format>
        <dc:type
           rdf:resource="http://purl.org/dc/dcmitype/StillImage" />
        <dc:title></dc:title>
      </cc:Work>
    </rdf:RDF>
  </metadata>
  <g
     inkscape:label="Camada 1"
     inkscape:groupmode="layer"
     id="layer1"
     transform="translate(0,-275.83332)">
    <path
       style="opacity:1;fill:#ffcc00;fill-opacity:1;stroke:none;stroke-width:0.2781716;stroke-miterlimit:4;stroke-dasharray:none;stroke-dashoffset:0;stroke-opacity:1"
       d="M 33.847656 6.0976562 C 29.913039 6.0976562 26.744141 9.2665701 26.744141 13.201172 L 26.744141 50.035156 C 26.744141 53.969758 29.913039 57.136719 33.847656 57.136719 L 67.585938 57.136719 C 69.777254 56.803125 71.614657 55.941482 73.087891 54.544922 C 75.02929 52.701268 75.996094 50.093416 75.996094 46.724609 C 75.996094 43.401195 75.014532 40.810976 73.052734 38.949219 C 71.088979 37.081527 68.547842 36.152344 65.423828 36.152344 L 50.621094 36.152344 C 49.363437 36.152344 48.382923 35.751536 47.675781 34.943359 C 46.968998 34.137526 46.615234 33.130455 46.615234 31.921875 C 46.615234 30.765906 46.96901 29.768922 47.675781 28.943359 C 48.382923 28.108877 49.363437 27.697266 50.621094 27.697266 L 65.423828 27.697266 C 69.955187 27.697266 74.033732 29.132309 77.65625 32.001953 C 82.188603 35.57217 84.458984 40.484156 84.458984 46.724609 C 84.458984 50.748954 83.505283 54.218094 81.613281 57.136719 L 85.349609 57.136719 C 88.580267 57.136719 91.288837 55.000638 92.15625 52.058594 C 91.472536 51.736683 90.831533 51.353839 90.246094 50.892578 C 87.93506 49.071791 86.900391 46.098155 86.900391 42.734375 L 86.900391 42.722656 L 86.976562 32.228516 C 86.976563 28.681391 87.464519 25.659543 88.599609 23.150391 L 88.603516 23.138672 L 88.609375 23.123047 C 89.596106 21.001575 90.871923 19.201315 92.451172 17.806641 L 92.451172 13.201172 C 92.451172 9.2665701 89.284226 6.0976563 85.349609 6.0976562 L 33.847656 6.0976562 z M 51.732422 13.050781 L 71.945312 13.050781 C 73.21085 13.050781 74.192924 13.458203 74.900391 14.259766 C 75.595336 15.067262 75.955078 16.074636 75.955078 17.28125 C 75.955078 18.443493 75.595355 19.4367 74.900391 20.271484 C 74.192924 21.097425 73.21085 21.515625 71.945312 21.515625 L 51.732422 21.515625 C 48.561689 21.515625 46.001551 22.433109 44.066406 24.267578 C 42.125007 26.111232 41.160156 28.717131 41.160156 32.085938 C 41.160156 35.40935 42.139767 38.001486 44.101562 39.863281 C 46.065322 41.730973 48.608408 42.660156 51.732422 42.660156 L 66.533203 42.660156 C 67.79086 42.660156 68.771374 43.061002 69.478516 43.869141 C 70.185299 44.674974 70.539062 45.682045 70.539062 46.890625 C 70.539062 48.046594 70.185291 49.043541 69.478516 49.869141 C 68.771374 50.703623 67.79086 51.115234 66.533203 51.115234 L 51.732422 51.115234 C 47.201063 51.115234 43.120565 49.680229 39.498047 46.810547 C 34.965696 43.240367 32.695312 38.326389 32.695312 32.085938 C 32.695312 25.892539 34.938603 21.007389 39.417969 17.435547 C 43.096417 14.513292 47.201063 13.050781 51.732422 13.050781 z "
       transform="matrix(0.26458333,0,0,0.26458333,0,275.83332)"
       id="rect542" />
    <path
       inkscape:connector-curvature="0"
       id="path534"
       style="font-style:normal;font-variant:normal;font-weight:normal;font-stretch:normal;font-size:medium;line-height:1.25;font-family:Fontastique;-inkscape-font-specification:Fontastique;letter-spacing:-2.27541685px;word-spacing:0px;fill:#5fbcd3;fill-opacity:1;stroke:none;stroke-width:1.23175633"
       d="m 35.926292,284.35956 q 0,-0.82774 -0.177371,-1.32044 -0.157664,-0.51241 -0.433576,-0.78832 -0.275917,-0.29562 -0.610952,-0.39416 -0.33504,-0.0985 -0.670076,-0.0985 -0.33504,0 -0.670076,0.0985 -0.315329,0.0985 -0.591241,0.39416 -0.256205,0.27591 -0.433581,0.78832 -0.157665,0.4927 -0.157665,1.32044 v 3.05476 q 0,0.59125 0.01973,0.9657 0.01969,0.37445 0.03942,0.59124 0.01973,0.2365 0.03942,0.35475 -1.221904,0 -1.872273,-0.51241 -0.650365,-0.51242 -0.650365,-1.67519 l 0.01969,-2.77885 q 0,-0.82774 -0.177375,-1.32044 -0.157665,-0.51241 -0.433577,-0.78832 -0.275916,-0.29562 -0.610952,-0.39416 -0.335035,-0.0985 -0.670075,-0.0985 -0.335036,0 -0.670076,0.0985 -0.315329,0.0985 -0.591241,0.39416 -0.256206,0.27591 -0.413871,0.78832 -0.157664,0.4927 -0.157664,1.32044 v 3.05476 q 0,0.59125 0,0.9657 0.01969,0.37445 0.03942,0.59124 0.01969,0.2365 0.03942,0.35475 -1.221904,0 -1.872273,-0.51241 -0.650365,-0.51242 -0.650365,-1.67519 l 0.01969,-2.77885 q 0,-1.32044 0.374452,-2.14818 0.394164,-0.84745 1.005116,-1.32044 0.610948,-0.47299 1.359858,-0.63066 0.768617,-0.17737 1.517523,-0.17737 0.82774,0 1.635774,0.19708 0.808029,0.19708 1.438692,0.74891 0.630659,-0.55183 1.438693,-0.74891 0.808034,-0.19708 1.635774,-0.19708 0.748906,0 1.517522,0.17737 0.768617,0.15767 1.379569,0.63066 0.630659,0.47299 1.005112,1.32044 0.394163,0.82774 0.394163,2.14818 v 3.05476 q 0,0.59125 0,0.9657 0.01969,0.37445 0.03942,0.59124 0.01969,0.2365 0.03942,0.35475 -1.2219,0 -1.872269,-0.51241 -0.630659,-0.51242 -0.630659,-1.67519 z" />
    <path
       inkscape:connector-curvature="0"
       id="path536"
       style="font-style:normal;font-variant:normal;font-weight:normal;font-stretch:normal;font-size:medium;line-height:1.25;font-family:Fontastique;-inkscape-font-specification:Fontastique;letter-spacing:-2.27541685px;word-spacing:0px;fill:#5fbcd3;fill-opacity:1;stroke:none;stroke-width:1.23175633"
       d="m 43.529709,286.82306 q 0.03942,-0.33504 -0.197081,-0.55183 -0.216789,-0.2365 -0.650365,-0.43357 -0.41387,-0.2168 -0.985405,-0.45329 -0.571535,-0.2365 -1.202198,-0.63066 -0.472994,-0.27592 -0.788323,-0.65037 -0.295623,-0.39416 -0.433577,-0.82774 -0.137958,-0.45329 -0.118251,-0.90657 0.01969,-0.473 0.216792,-0.92628 0.197078,-0.43358 0.512411,-0.7292 0.31533,-0.29562 0.689783,-0.473 0.394159,-0.19708 0.788323,-0.27591 0.394163,-0.0788 0.729199,-0.0788 h 0.236499 q 1.044529,0.0591 1.911686,0.51241 0.867154,0.45328 1.478106,1.20219 l 0.05912,0.0591 -0.05912,0.0788 q -0.197082,0.27591 -0.433577,0.41387 -0.216788,0.13796 -0.492705,0.13796 -0.275912,0 -0.532117,-0.0985 -0.256206,-0.11825 -0.551829,-0.2365 -0.374452,-0.15766 -0.709488,-0.25621 -0.315329,-0.11825 -0.650369,-0.11825 -0.433577,0 -0.650365,0.19708 -0.216793,0.17738 -0.256206,0.43359 -0.03942,0.37445 0.236495,0.63065 0.275916,0.2365 0.808034,0.45329 0.610952,0.2562 1.300734,0.57153 0.689782,0.29563 1.2219,0.74891 0.532122,0.43358 0.808034,1.06424 0.275912,0.61095 0.05912,1.49781 -0.09854,0.35475 -0.335035,0.74891 -0.2365,0.37446 -0.670076,0.68979 -0.41387,0.31533 -1.024822,0.51241 -0.591242,0.21679 -1.399275,0.21679 -0.157665,0 -0.256206,-0.0197 -0.945988,-0.0394 -1.872269,-0.49271 -0.906575,-0.45328 -1.517522,-1.20219 l -0.05913,-0.0591 0.05913,-0.0788 q 0.09854,-0.15766 0.216788,-0.2562 0.118247,-0.0985 0.216788,-0.17738 0.236499,-0.11824 0.472994,-0.11824 0.275912,0 0.532117,0.11824 0.256206,0.0986 0.551829,0.21679 0.275912,0.13796 0.610952,0.2365 0.354746,0.0985 0.768617,0.13796 0.709488,0 1.005111,-0.27592 0.315329,-0.27591 0.354746,-0.55182 z" />
    <g
       id="g4498" />
    <text
       id="text513"
       y="293.84683"
       x="8.2943897"
       style="font-style:normal;font-variant:normal;font-weight:normal;font-stretch:normal;font-size:3.30987406px;line-height:1.25;font-family:'Artegra Sans Alt';-inkscape-font-specification:'Artegra Sans Alt';letter-spacing:0px;word-spacing:0px;fill:#ffffff;fill-opacity:1;stroke:none;stroke-width:0.20686713;"
       xml:space="preserve"><tspan
         style="font-style:normal;font-variant:normal;font-weight:normal;font-stretch:normal;font-family:'Artegra Sans Alt';-inkscape-font-specification:'Artegra Sans Alt';fill:#ffffff;fill-opacity:1;stroke-width:0.20686713;"
         y="293.84683"
         x="8.2943897"
         id="tspan511"
         sodipodi:role="line">grupo medical soluções</tspan></text>
  </g>
</svg>
